# AST/ASF file generated using VICON BodyLanguage
# -----------------------------------------------
:version 1.10
:name VICON
:units
  mass 1.0
  length 0.45
  angle deg
:documentation
   .ast/.asf automatically generated from VICON data using
   VICON BodyBuilder and BodyLanguage model FoxedUp or BRILLIANT.MOD
:root
   order TX TY TZ RX RY RZ
   axis XYZ
   position 0 0 0  
   orientation 0 0 0 
:bonedata
  begin
     id 1 
     name lhipjoint
     direction 0.643824 -0.71708 0.266994 
     length 2.52133 
     axis 0 0 0  XYZ
  end
  begin
     id 2 
     name lfemur
     direction 0.34202 -0.939693 0  
     length 7.51824  
     axis 0 0 20  XYZ
    dof rx ry rz
    limits (-160.0 20.0)
           (-70.0 70.0)
           (-60.0 70.0)
  end
  begin
     id 3 
     name ltibia
     direction 0.34202 -0.939693 0   
     length 7.3685   
     axis 0 0 20   XYZ
    dof rx
    limits (-10.0 170.0)
  end
  begin
     id 4 
     name lfoot
     direction 0.105419 -0.289636 0.951314   
     length 2.20972   
     axis -90 7.62852e-016 20   XYZ
    dof rx rz
    limits (-45.0 90.0)
           (-70.0 20.0)
  end
  begin
     id 5 
     name ltoes
     direction 1.53549e-011 -4.21833e-011 1   
     length 1.10139   
     axis -90 7.62852e-016 20   XYZ
    dof rx
    limits (-90.0 20.0)
  end
  begin
     id 6 
     name rhipjoint
     direction -0.608823 -0.743445 0.276811   
     length 2.43192  
     axis 0 0 0  XYZ 
  end
  begin
     id 7 
     name rfemur
     direction -0.34202 -0.939693 0   
     length 7.69715   
     axis 0 0 -20   XYZ
    dof rx ry rz
    limits (-160.0 20.0)
           (-70.0 70.0)
           (-70.0 60.0)
  end
  begin
     id 8 
     name rtibia
     direction -0.34202 -0.939693 0   
     length 7.44924   
     axis 0 0 -20   XYZ
    dof rx
    limits (-10.0 170.0)
 end
 begin
     id 9 
     name rfoot
     direction -0.103614 -0.284677 0.953007   
     length 2.22623  
     axis -90 -7.62852e-016 -20   XYZ
    dof rx rz
    limits (-45.0 90.0)
           (-20.0 70.0)
  end
  begin
     id 10 
     name rtoes
     direction -1.53537e-011 -4.22026e-011 1   
     length 1.11   
     axis -90 -7.62852e-016 -20   XYZ
    dof rx
    limits (-90.0 20.0)
  end
  begin
     id 11 
     name lowerback
     direction -0.0101212 0.99662 -0.0815298   
     length 2.08277   
     axis 0 0 0   XYZ
    dof rx ry rz
    limits (-20.0 45.0)
           (-30.0 30.0)
           (-30.0 30.0)
  end
  begin
     id 12 
     name upperback
     direction 0.024314 0.999591 -0.0150645   
     length 2.08524   
     axis 0 0 0   XYZ
    dof rx ry rz
    limits (-20.0 45.0)
           (-30.0 30.0)
           (-30.0 30.0)
  end
  begin
     id 13 
     name thorax
     direction 0.0285959 0.999323 0.0231357   
     length 2.09645   
     axis 0 0 0   XYZ
    dof rx ry rz
    limits (-20.0 45.0)
           (-30.0 30.0)
           (-30.0 30.0)
  end
  begin
     id 14 
     name lowerneck
     direction -0.065512 0.979301 0.191515   
     length 1.63798   
     axis 0 0 0   XYZ
    dof rx ry rz
    limits (-20.0 45.0)
           (-30.0 30.0)
           (-30.0 30.0)
  end
  begin
     id 15 
     name upperneck
     direction 0.0498479 0.98191 -0.182667   
     length 1.68731   
     axis 0 0 0   XYZ
    dof rx ry rz
    limits (-20.0 45.0)
           (-30.0 30.0)
           (-30.0 30.0)
  end
  begin
     id 16
     name head
     direction 0.0230358 0.996257 -0.0833175  
     length 1.69785  
     axis 0 0 0   XYZ
    dof rx ry rz
    limits (-20.0 45.0)
           (-30.0 30.0)
           (-30.0 30.0)
  end
  begin
     id 17 
     name lclavicle
     direction 0.967963 0.201165 -0.150269  
     length 3.63976  
     axis 0 0 0   XYZ
    dof ry rz
    limits (-20.0 10.0)
           (0.0 20.0)
  end
  begin
     id 18 
     name lhumerus
     direction 1 -4.48954e-011 -2.92837e-028   
     length 5.32462   
     axis 180 -30 -90   XYZ
    dof rx ry rz
    limits (-60.0 90.0)
           (-90.0 90.0)
           (-90.0 90.0)
  end
  begin
     id 19
     name lradius
     direction 1 -4.48958e-011 -6.39511e-027   
     length 3.48402   
     axis 180 -30 -90   XYZ
    dof rx
    limits (-10.0 170.0)
  end
  begin
     id 20
     name lwrist
     direction 1 -4.48975e-011 -1.1413e-026   
     length 1.74201   
     axis 6.88575e-015 90 90   XYZ
    dof ry
    limits (-180.0 0.0)
 end
  begin
     id 21 
     name lhand
     direction 1 -4.48899e-011 -2.28192e-026   
     length 0.572476   
     axis 1.45643e-014 90 90   XYZ
    dof rx rz
    limits (-90.0 90.0)
           (-45.0 45.0)
  end
  begin
     id 22 
     name lfingers
     direction 1 -4.49155e-011 -4.5684e-026   
     length 0.461545   
     axis 2.91283e-014 90 90   XYZ
    dof rx
    limits (0.0 90.0)
  end
  begin
     id 23
     name lthumb
     direction 0.707107 -6.34943e-011 0.707107   
     length 0.662688   
     axis -90 45 -2.25915e-014   XYZ
    dof rx rz
    limits (-45.0 45.0)
           (-45.0 45.0)
  end
  begin
     id 24 
     name rclavicle
     direction -0.964103 0.264019 -0.0282629   
     length 3.54491  
     axis 0 0 0   XYZ 
    dof ry rz
    limits (-10.0 20.0)
           (-20.0 0.0)
  end
  begin
     id 25 
     name rhumerus
     direction -1 -4.48964e-011 -2.45032e-027  
     length 5.33589   
     axis 180 30 90   XYZ
    dof rx ry rz
    limits (-90.0 60.0)
           (-90.0 90.0)
           (-90.0 90.0)
  end
  begin
     id 26 
     name rradius
     direction -1 -4.48987e-011 -1.55093e-027   
     length 3.64134   
     axis 180 30 90   XYZ
    dof rx
    limits (-10.0 170.0)
  end
  begin
     id 27 
     name rwrist
     direction -1 -4.4897e-011 -1.14128e-026   
     length 1.82067   
     axis 6.88575e-015 -90 -90   XYZ
    dof ry
    limits (-180.0 0.0)
  end
  begin
     id 28
     name rhand
     direction -1 -4.49021e-011 -2.28301e-026   
     length 0.734811   
     axis 1.45643e-014 -90 -90   XYZ
    dof rx rz
    limits (-90.0 90.0)
           (-45.0 45.0)
  end
  begin
     id 29
     name rfingers
     direction -1 -4.48862e-011 -4.56319e-026   
     length 0.592424   
     axis 2.91283e-014 -90 -90   XYZ
    dof rx
    limits (0.0 90.0)
  end
  begin
     id 30
     name rthumb
     direction -0.707107 -6.34978e-011 0.707107   
     length 0.850605   
     axis -90 -45 2.25915e-014   XYZ
    dof rx rz
    limits (-45.0 45.0)
           (-45.0 45.0)
  end
:hierarchy
  begin
    root lhipjoint rhipjoint lowerback
    lhipjoint lfemur
    lfemur ltibia
    ltibia lfoot
    lfoot ltoes
    rhipjoint rfemur
    rfemur rtibia
    rtibia rfoot
    rfoot rtoes
    lowerback upperback
    upperback thorax
    thorax lowerneck lclavicle rclavicle
    lowerneck upperneck
    upperneck head
    lclavicle lhumerus
    lhumerus lradius
    lradius lwrist
    lwrist lhand lthumb
    lhand lfingers
    rclavicle rhumerus
    rhumerus rradius
    rradius rwrist
    rwrist rhand rthumb
    rhand rfingers
  end

#!OML:ASF F:\VICON\USERDATA\INSTALL\rory3\rory3.ASF
:FULLY-SPECIFIED
:DEGREES
165
root -0.625334 18.1693 0.78743 28.0241 -71.2252 -30.0171
lowerback 5.62598 0.613726 0.399634
upperback -5.62185 0.288674 -5.35475
thorax -9.11123 -0.156772 -5.99032
lowerneck -21.1554 -12.2896 -14.3872
upperneck -15.3067 -13.3264 16.8426
head 0.803888 -6.16354 6.48365
rclavicle 3.97569e-015 2.8625e-014
rhumerus 75.8493 -41.2045 -29.5683
rradius 30.6372
rwrist 26.6572
rhand -28.503 -1.19428
rfingers 7.12502
rthumb -1.87167 -31.1658
lclavicle 3.97569e-015 2.8625e-014
lhumerus -27.3507 -15.267 71.8896
lradius 46.844
lwrist 0.900822
lhand -13.8566 21.3311
lfingers 7.12502
lthumb 12.2674 50.9513
rfemur -7.08713 -3.23577 30.0056
rtibia 36.2697
rfoot -4.4425 -1.18141
rtoes 5.03331
lfemur -12.0313 4.41261 -1.84315
ltibia 42.4596
lfoot 3.64956 -17.9499
ltoes -14.3801
166
root -0.650271 18.2062 0.805165 29.0777 -71.1249 -31.0899
lowerback 5.42607 0.632513 1.0043
upperback -5.62615 0.372615 -5.42802
thorax -8.98774 -0.155909 -6.42305
lowerneck -21.3198 -12.325 -14.1657
upperneck -15.2921 -13.4056 16.7266
head 0.813731 -6.20744 6.39708
rclavicle 3.69739e-014 6.36111e-015
rhumerus 76.181 -41.2769 -30.1041
rradius 30.3814
rwrist 27.0198
rhand -28.4248 -1.52637
rfingers 7.12502
rthumb -1.79621 -31.4986
lclavicle 3.69739e-014 6.36111e-015
lhumerus -27.2619 -15.9467 71.673
lradius 47.1519
lwrist 0.658893
lhand -13.8204 20.9063
lfingers 7.12502
lthumb 12.3023 50.5244
rfemur -6.99795 -3.51785 30.1455
rtibia 36.0751
rfoot -3.45161 -0.911635
rtoes 4.80387
lfemur -11.8771 3.80512 -1.12986
ltibia 41.9036
lfoot 4.50466 -18.5785
ltoes -19.1788
167
root -0.658674 18.2454 0.823584 29.9628 -71.1312 -31.8511
lowerback 5.3331 0.688988 1.44487
upperback -5.72847 0.487282 -5.44306
thorax -9.03038 -0.133086 -6.70971
lowerneck -21.3777 -12.4398 -14.312
upperneck -15.2912 -13.5177 16.7094
head 0.841368 -6.25199 6.39713
rclavicle -3.33958e-014 -3.18055e-015
rhumerus 76.7538 -41.2211 -30.7421
rradius 30.0577
rwrist 27.5614
rhand -28.3149 -2.00484
rfingers 7.12502
rthumb -1.69004 -31.9779
lclavicle -3.33958e-014 -3.18055e-015
lhumerus -27.1295 -16.3119 71.576
lradius 47.4366
lwrist -0.153852
lhand -13.1691 20.6717
lfingers 7.12502
lthumb 12.9301 50.2511
rfemur -7.17805 -3.66416 30.1715
rtibia 35.9935
rfoot -2.39837 -0.795957
rtoes 4.25015
lfemur -11.8943 3.35994 -0.588097
ltibia 41.2795
lfoot 4.8968 -19.3921
ltoes -24.1132
168
root -0.66537 18.2816 0.835799 29.8098 -71.4307 -31.7246
lowerback 5.49918 0.77488 1.39053
upperback -5.81037 0.578235 -5.55162
thorax -9.20837 -0.0984405 -6.819
lowerneck -21.2943 -12.5372 -14.6143
upperneck -15.3499 -13.5846 16.9176
head 0.862209 -6.27228 6.50315
rclavicle -1.59028e-014 -4.13472e-014
rhumerus 77.073 -41.0943 -31.0704
rradius 29.7754
rwrist 27.7498
rhand -28.4555 -2.44626
rfingers 7.12502
rthumb -1.82588 -32.4182
lclavicle -1.59028e-014 -4.13472e-014
lhumerus -27.0026 -16.5833 71.2763
lradius 47.8103
lwrist -1.31823
lhand -11.9463 20.155
lfingers 7.12502
lthumb 14.1087 49.6561
rfemur -7.22481 -3.38279 29.8628
rtibia 36.011
rfoot -1.51444 -0.936065
rtoes 3.31751
lfemur -11.6687 2.73103 -0.503775
ltibia 40.6095
lfoot 4.77487 -20.0633
ltoes -26.8963
169
root -0.663222 18.3136 0.824952 27.144 -71.9008 -29.2477
lowerback 6.18812 0.849099 0.312222
upperback -5.84229 0.511429 -5.83199
thorax -9.6694 -0.0880093 -6.52447
lowerneck -21.2831 -12.5741 -14.7234
upperneck -15.3437 -13.6081 16.9974
head 0.881068 -6.27687 6.54114
rclavicle -3.26007e-014 5.08889e-014
rhumerus 76.8493 -41.0734 -30.8646
rradius 29.595
rwrist 27.5323
rhand -28.9128 -2.56651
rfingers 7.12502
rthumb -2.26754 -32.5342
lclavicle -3.26007e-014 5.08889e-014
lhumerus -26.7834 -17.1356 70.9139
lradius 48.1553
lwrist -2.00351
lhand -11.2138 19.5782
lfingers 7.12502
lthumb 14.8145 49.0287
rfemur -7.1178 -2.97799 28.9092
rtibia 36.1125
rfoot -0.691868 -1.29499
rtoes 2.65725
lfemur -11.3288 1.77452 -1.20742
ltibia 39.925
lfoot 4.81364 -20.2277
ltoes -25.0852
170
root -0.672614 18.3517 0.831552 26.9165 -72.0156 -28.9942
lowerback 6.27681 0.917434 0.179875
upperback -5.91348 0.570319 -5.9179
thorax -9.79609 -0.0603679 -6.55857
lowerneck -21.2099 -12.5767 -14.7454
upperneck -15.3826 -13.6126 16.9654
head 0.858202 -6.28009 6.53838
rclavicle -2.22639e-014 2.8625e-014
rhumerus 76.6192 -41.0668 -30.6285
rradius 29.4209
rwrist 27.4407
rhand -29.2814 -2.68174
rfingers 7.12502
rthumb -2.62343 -32.6454
lclavicle -2.22639e-014 2.8625e-014
lhumerus -26.5792 -17.5646 70.5675
lradius 48.5801
lwrist -2.63549
lhand -11.023 19.1541
lfingers 7.12502
lthumb 14.9983 48.5909
rfemur -7.27014 -2.79259 28.6892
rtibia 36.2019
rfoot 0.268803 -1.47551
rtoes 3.12313
lfemur -11.2486 0.945804 -1.08906
ltibia 39.2456
lfoot 4.39587 -20.2952
ltoes -22.8876
171
root -0.697008 18.3976 0.883531 29.5929 -72.3612 -30.9142
lowerback 5.06428 1.1164 1.00147
upperback -6.18031 0.93615 -5.92731
thorax -9.31515 0.0664409 -7.05373
lowerneck -21.2233 -12.6009 -14.8463
upperneck -15.3061 -13.6225 16.9098
head 0.883502 -6.27698 6.53196
rclavicle 1.59028e-014 -7.63333e-014
rhumerus 76.8 -40.9448 -30.8541
rradius 29.1994
rwrist 27.7071
rhand -29.2569 -3.02517
rfingers 7.12502
rthumb -2.59978 -32.9891
lclavicle 1.59028e-014 -7.63333e-014
lhumerus -26.4634 -17.6757 70.2394
lradius 49.0644
lwrist -3.30845
lhand -10.9598 18.8695
lfingers 7.12502
lthumb 15.0593 48.3018
rfemur -8.15608 -2.68718 28.7699
rtibia 36.2212
rfoot 1.53513 -1.22645
rtoes 3.8613
lfemur -11.635 0.577091 -0.612761
ltibia 38.5953
lfoot 2.92518 -20.1171
ltoes -24.5804
172
root -0.699488 18.4348 0.879504 28.3351 -72.5014 -30.1949
lowerback 5.89434 1.09753 0.568792
upperback -6.13465 0.858886 -5.85587
thorax -9.77473 0.051393 -6.74977
lowerneck -21.3107 -12.6511 -15.1101
upperneck -15.1338 -13.6239 16.8722
head 0.956906 -6.25698 6.55071
rclavicle -6.75868e-015 2.54444e-014
rhumerus 77.1785 -40.7057 -31.1251
rradius 28.9569
rwrist 28.0913
rhand -29.2017 -3.25568
rfingers 7.12502
rthumb -2.54654 -33.2202
lclavicle -6.75868e-015 2.54444e-014
lhumerus -26.4347 -17.7548 70.0705
lradius 49.5758
lwrist -3.67588
lhand -11.283 18.8091
lfingers 7.12502
lthumb 14.7479 48.2645
rfemur -7.60999 -2.66509 28.3775
rtibia 36.1019
rfoot 2.43729 -1.55692
rtoes 4.06246
lfemur -10.974 -0.447882 -0.688155
ltibia 37.9935
lfoot 1.77779 -19.6558
ltoes -26.103
173
root -0.707289 18.4785 0.897185 27.5383 -72.8452 -29.5056
lowerback 6.12348 1.13058 0.201854
upperback -6.19249 0.851156 -5.85356
thorax -9.98155 0.0662411 -6.5482
lowerneck -21.3383 -12.6456 -15.2332
upperneck -15.0386 -13.5888 16.8499
head 0.988735 -6.23066 6.56289
rclavicle -2.10712e-014 1.39944e-013
rhumerus 77.4231 -40.4314 -31.2688
rradius 28.7731
rwrist 28.4659
rhand -29.1093 -3.20749
rfingers 7.12502
rthumb -2.45724 -33.1731
lclavicle -2.10712e-014 1.39944e-013
lhumerus -26.3752 -17.7216 69.7577
lradius 50.1506
lwrist -3.95686
lhand -11.4483 18.864
lfingers 7.12502
lthumb 14.5886 48.331
rfemur -7.48998 -2.59206 27.839
rtibia 35.9293
rfoot 3.58835 -1.73103
rtoes 3.89551
lfemur -10.6542 -1.4548 -0.942855
ltibia 37.4228
lfoot 0.764569 -18.3359
ltoes -25.8268
174
root -0.724646 18.5258 0.92292 27.5916 -73.1138 -29.5024
lowerback 5.94308 1.14574 0.1165
upperback -6.24714 0.862899 -5.84481
thorax -9.93389 0.0778463 -6.48579
lowerneck -21.2766 -12.6082 -15.2465
upperneck -15.1033 -13.5439 16.9128
head 0.963408 -6.21201 6.59527
rclavicle -9.93923e-015 -6.36111e-015
rhumerus 77.4986 -40.1929 -31.3195
rradius 28.6575
rwrist 28.7162
rhand -28.8817 -3.11337
rfingers 7.12502
rthumb -2.23749 -33.0814
lclavicle -9.93923e-015 -6.36111e-015
lhumerus -26.1968 -17.6595 69.2223
lradius 50.7233
lwrist -4.03807
lhand -11.6625 18.8494
lfingers 7.12502
lthumb 14.3822 48.3311
rfemur -7.54198 -2.41776 27.5153
rtibia 35.7723
rfoot 4.68444 -1.95095
rtoes 4.50752
lfemur -10.4495 -2.55488 -1.00472
ltibia 36.8516
lfoot -0.231593 -16.3515
ltoes -24.81
175
root -0.740418 18.5656 0.952992 27.3801 -73.4542 -29.3044
lowerback 5.79173 1.20191 0.0294057
upperback -6.26398 0.934137 -5.82303
thorax -9.85473 0.121331 -6.41544
lowerneck -21.2274 -12.6363 -15.4954
upperneck -15.0513 -13.5337 16.986
head 0.993607 -6.19536 6.65708
rclavicle 1.55052e-014 4.45278e-014
rhumerus 77.2966 -39.9757 -30.8528
rradius 28.5326
rwrist 28.8012
rhand -28.6987 -3.19467
rfingers 7.12502
rthumb -2.06074 -33.1645
lclavicle 1.55052e-014 4.45278e-014
lhumerus -25.9318 -17.6718 68.7746
lradius 51.2994
lwrist -3.84271
lhand -12.002 19.0066
lfingers 7.12502
lthumb 14.055 48.5113
rfemur -7.47949 -2.20722 27.0755
rtibia 35.5799
rfoot 5.68653 -2.11466
rtoes 4.83772
lfemur -10.1674 -3.42073 -1.23077
ltibia 36.3706
lfoot -1.53002 -14.0587
ltoes -25.8321
176
root -0.748266 18.5973 0.977733 27.166 -73.6673 -28.9874
lowerback 5.65748 1.24439 -0.0966295
upperback -6.35893 0.977968 -5.78721
thorax -9.87693 0.150455 -6.30857
lowerneck -21.191 -12.6539 -15.6667
upperneck -14.8292 -13.5294 16.9037
head 1.05587 -6.18148 6.65108
rclavicle 2.18663e-014 -3.18055e-015
rhumerus 76.7037 -39.7804 -29.8729
rradius 28.3955
rwrist 28.6489
rhand -28.468 -3.27512
rfingers 7.12502
rthumb -1.83793 -33.247
lclavicle 2.18663e-014 -3.18055e-015
lhumerus -25.624 -17.9222 68.3081
lradius 51.9426
lwrist -3.30634
lhand -12.3793 19.4252
lfingers 7.12502
lthumb 13.6915 48.9548
rfemur -7.52815 -1.91514 26.716
rtibia 35.3684
rfoot 6.52693 -2.54877
rtoes 6.34884
lfemur -10.1307 -3.88162 -1.38025
ltibia 35.984
lfoot -2.509 -11.7668
ltoes -27.9511
